<?xml version="1.0" encoding="utf-8"?>
<!-- Generator: Adobe Illustrator 19.0.0, SVG Export Plug-In . SVG Version: 6.00 Build 0)  -->
<svg version="1.1" id="Layer_1" xmlns="http://www.w3.org/2000/svg" xmlns:xlink="http://www.w3.org/1999/xlink" x="0px" y="0px"
	 viewBox="0 0 2488.9 788.2" style="enable-background:new 0 0 2488.9 788.2;" xml:space="preserve">
<style type="text/css">
	.st0{fill:#5346A5;stroke:#4D4D4D;stroke-width:1.2549;stroke-miterlimit:10;}
	.st1{fill:#5346A5;stroke:#4D4D4D;stroke-width:3.2656;stroke-miterlimit:10;}
	.st2{font-family:'Regular';}
	.st3{font-size:506.7721px;}
</style>
<path class="st0" d="M307.4,455v78.1l200-59.4c0,0,46.5-20,48.4-67.8s0-80.7,0-80.7s-9.7-42.6-47.7-61.3s-81.3-47.1-81.3-47.1
	s-46.5-32.9-102.6,0s-91.6,52.3-91.6,52.3s-45.2,21.9-44.5,88.4s0.6,66.5,0.6,66.5L188,555v38.7c0,0-3.2,56.8,54.9,89.7
	s58.1,32.9,58.1,32.9l23.2,12.9c0,0,41.3,32.3,100.7,0c59.4-32.3,59.4-32.3,59.4-32.3l157.4-93.6c0,0,36.8-14.8,43.2-71.6
	c1.9-58.9,0-244.5,0-244.5s7.1-58.9-32.3-85s-39.4-26-39.4-26l-180-103.9c0,0-47.1-47.1-122,0s-79.4,45.8-79.4,45.8l-122.6,71
	c0,0-49,21.3-49,112.9s0,221.3,0,221.3s7.1,78.7,76.1,60c69-18.7,51.6-14.3,51.6-14.3l0.3-77.5l-53.2,16.4l-0.6-229.1
	c0,0,0.6-20,16.8-29c16.1-9,203.3-116.1,203.3-116.1s11.6-13.6,32.3-1.9c20.6,11.6,210.4,120.7,210.4,120.7s12.3,1.9,12.9,27.7
	c0.6,25.8,1.3,235.5,1.3,235.5s4.5,16.8-11.6,27.1c-16.1,10.3-207.8,118.7-207.8,118.7S379,675,360.3,666c-18.7-9-83.2-49-83.2-49
	s-14.2-6.5-13.6-22.6c0.6-16.1,0-239.4,0-239.4s-1.9-20,12.9-27.7c14.8-7.7,79.5-45.2,79.5-45.2s14.7-11,33.4,0
	c18.7,11,80,45.2,80,45.2s13.6,7.1,13.6,23.9s-0.6,39.4-0.6,39.4s3.9,11.6-12.9,16.8S307.4,455,307.4,455z"/>
<text transform="matrix(1 0 0 1 770.6612 575.5803)" class="st1 st2 st3">PINOKIO</text>
</svg>
