<?xml version="1.0" encoding="utf-8"?>
<!-- Generator: Adobe Illustrator 19.0.0, SVG Export Plug-In . SVG Version: 6.00 Build 0)  -->
<svg version="1.1" id="Layer_1" xmlns="http://www.w3.org/2000/svg" xmlns:xlink="http://www.w3.org/1999/xlink" x="0px" y="0px"
	 viewBox="0 0 157.8 174.6" style="enable-background:new 0 0 157.8 174.6;" xml:space="preserve">
<style type="text/css">
	.st0{fill:#5346A5;stroke:#4D4D4D;stroke-width:0.3165;stroke-miterlimit:10;}
</style>
<path class="st0" d="M62.3,101.8v19.7l50.5-15c0,0,11.7-5,12.2-17.1s0-20.3,0-20.3s-2.4-10.7-12-15.5S92.4,41.7,92.4,41.7
	s-11.7-8.3-25.9,0S43.5,54.9,43.5,54.9s-11.4,5.5-11.2,22.3S32.4,94,32.4,94l-0.2,33v9.8c0,0-0.8,14.3,13.8,22.6s14.6,8.3,14.6,8.3
	l5.9,3.3c0,0,10.4,8.1,25.4,0c15-8.1,15-8.1,15-8.1l39.7-23.6c0,0,9.3-3.7,10.9-18.1c0.5-14.8,0-61.7,0-61.7s1.8-14.9-8.1-21.4
	c-9.9-6.6-9.9-6.6-9.9-6.6L94.1,5.3c0,0-11.9-11.9-30.8,0s-20,11.6-20,11.6L12.4,34.7c0,0-12.4,5.4-12.4,28.5S0,119,0,119
	s1.8,19.9,19.2,15.1c17.4-4.7,13-3.6,13-3.6l0.1-19.6l-13.4,4.1l-0.2-57.8c0,0,0.2-5,4.2-7.3s51.3-29.3,51.3-29.3s2.9-3.4,8.1-0.5
	c5.2,2.9,53.1,30.4,53.1,30.4s3.1,0.5,3.3,7c0.2,6.5,0.3,59.4,0.3,59.4s1.1,4.2-2.9,6.8c-4.1,2.6-52.4,29.9-52.4,29.9
	s-3.3,3.4-8,1.1c-4.7-2.3-21-12.4-21-12.4s-3.6-1.6-3.4-5.7s0-60.4,0-60.4s-0.5-5,3.3-7c3.7-2,20.1-11.4,20.1-11.4s3.7-2.8,8.4,0
	c4.7,2.8,20.2,11.4,20.2,11.4s3.4,1.8,3.4,6c0,4.2-0.2,9.9-0.2,9.9s1,2.9-3.3,4.2S62.3,101.8,62.3,101.8z"/>
</svg>
