<?xml version="1.0" standalone="no"?>
<!DOCTYPE svg PUBLIC "-//W3C//DTD SVG 20010904//EN"
 "http://www.w3.org/TR/2001/REC-SVG-20010904/DTD/svg10.dtd">
<svg version="1.0" xmlns="http://www.w3.org/2000/svg"
 width="1024.000000pt" height="1024.000000pt" viewBox="0 0 1024.000000 1024.000000"
 preserveAspectRatio="xMidYMid meet">
<metadata>
Created by potrace 1.11, written by Peter Selinger 2001-2013
</metadata>
<g transform="translate(0.000000,1024.000000) scale(0.100000,-0.100000)"
fill="#000000" stroke="none">
<path d="M4971 10189 c-211 -49 -364 -149 -466 -304 -43 -65 -99 -204 -110
-272 -8 -49 5 -44 -180 -78 -190 -35 -419 -94 -602 -153 l-151 -49 -70 23
c-195 66 -432 41 -612 -63 -80 -47 -223 -188 -269 -265 -18 -32 -46 -95 -62
-140 l-28 -83 -121 -87 c-709 -512 -1273 -1216 -1607 -2008 -221 -522 -337
-1019 -373 -1585 -6 -93 -13 -186 -16 -205 -6 -38 9 -300 32 -545 32 -343 111
-713 223 -1046 374 -1119 1146 -2056 2171 -2639 978 -556 2117 -748 3228 -544
1607 294 2961 1402 3569 2919 207 514 306 975 343 1591 14 223 -5 572 -46 859
-182 1284 -891 2451 -1947 3207 l-112 80 -27 83 c-64 197 -185 338 -369 430
-174 88 -376 102 -564 39 l-77 -26 -55 21 c-153 59 -511 153 -728 191 -66 12
-127 23 -135 25 -10 3 -20 27 -26 63 -44 231 -209 428 -434 519 -141 56 -260
70 -379 42z m266 -264 c166 -62 274 -198 306 -383 23 -137 -33 -302 -136 -404
-179 -176 -463 -179 -640 -5 -192 188 -196 480 -9 679 87 93 190 137 324 137
69 1 101 -4 155 -24z m-800 -745 c19 -36 54 -91 79 -122 24 -32 40 -59 36 -62
-4 -2 -45 -10 -92 -16 -122 -18 -394 -75 -496 -104 -47 -14 -90 -23 -95 -21
-4 3 -10 20 -14 38 -4 17 -27 70 -51 116 -25 47 -41 88 -37 92 20 19 599 153
627 146 5 -2 24 -32 43 -67z m1607 19 c134 -28 363 -86 378 -96 4 -2 -3 -21
-16 -41 -30 -48 -60 -115 -77 -170 -9 -31 -16 -41 -28 -37 -120 37 -430 105
-579 126 -45 6 -84 15 -87 19 -3 4 13 29 35 56 21 26 53 75 71 108 18 34 36
66 40 72 11 13 62 6 263 -37z m-2800 -115 c90 -23 170 -70 229 -134 181 -196
183 -465 5 -656 -112 -120 -291 -172 -439 -128 -65 20 -155 64 -190 96 -72 64
-139 176 -158 266 -33 157 7 305 115 421 114 124 281 175 438 135z m3893 6
c111 -26 244 -122 300 -217 64 -110 81 -262 43 -387 -70 -225 -310 -373 -533
-326 -309 64 -469 407 -319 684 36 66 114 150 169 183 103 60 241 86 340 63z
m-2445 -470 c4 -69 6 -130 4 -136 -3 -6 -31 -15 -63 -19 -251 -30 -593 -113
-791 -192 -35 -14 -66 -23 -69 -20 -3 3 4 18 15 34 36 51 92 208 92 259 0 31
65 58 245 103 164 41 505 102 545 97 12 -1 16 -26 22 -126z m963 109 c262 -38
642 -133 649 -162 2 -7 11 -46 21 -87 9 -41 33 -106 51 -144 19 -39 34 -73 34
-77 0 -4 -66 15 -147 43 -215 72 -496 137 -716 163 -35 5 -61 13 -64 21 -5 14
15 243 23 256 4 7 19 5 149 -13z m-441 0 c3 -3 -1 -72 -9 -154 -22 -226 -20
-648 5 -862 11 -94 29 -217 40 -271 11 -55 20 -107 20 -116 0 -14 -23 -16
-190 -16 -154 0 -190 3 -190 14 0 7 6 51 14 97 60 354 91 908 66 1199 -4 58
-7 107 -5 110 4 6 243 6 249 -1z m-2754 -333 c0 -17 48 -104 87 -160 31 -43
33 -50 19 -58 -40 -23 -221 -174 -327 -274 -378 -356 -667 -740 -881 -1168
-28 -56 -52 -103 -53 -104 -2 -2 -60 15 -129 38 -82 27 -126 47 -126 56 0 19
97 213 173 344 255 445 659 919 1042 1224 170 135 169 135 183 124 6 -6 12
-16 12 -22z m5448 -88 c282 -225 666 -644 882 -963 125 -186 350 -586 350
-624 0 -9 -249 -96 -254 -89 -2 1 -27 48 -56 103 -29 55 -69 129 -88 165 -51
92 -201 326 -268 417 -189 256 -503 585 -742 776 -67 54 -120 102 -118 105 2
4 25 38 50 77 25 38 46 72 46 76 0 4 7 23 15 43 19 45 15 47 183 -86z m-3219
-280 c0 -18 -6 -80 -12 -138 l-12 -105 -135 -27 c-141 -28 -361 -89 -466 -128
-34 -13 -68 -21 -75 -18 -8 3 -34 58 -58 123 -35 95 -41 119 -30 126 57 35
369 129 549 164 156 30 168 32 208 34 30 1 32 -1 31 -31z m932 17 c131 -19
389 -85 540 -137 101 -36 125 -47 127 -64 4 -30 -78 -234 -94 -234 -7 0 -73
20 -146 44 -141 46 -337 97 -453 115 -109 18 -103 13 -109 94 -16 214 -17 197
12 197 15 0 70 -7 123 -15z m1838 -67 c379 -283 765 -712 1004 -1118 94 -158
177 -315 177 -333 0 -13 -207 -137 -227 -137 -4 0 -33 49 -63 108 -155 303
-363 599 -606 861 -84 92 -310 291 -453 400 -66 50 -121 95 -121 99 0 4 10 24
23 45 19 32 37 44 106 71 45 19 85 36 88 40 10 10 13 8 72 -36z m-4579 -3 c83
-33 123 -65 133 -107 4 -14 -22 -39 -116 -110 -451 -341 -809 -766 -1060
-1258 -27 -52 -52 -99 -57 -103 -7 -8 -224 105 -235 123 -7 11 101 217 186
355 229 376 501 692 834 971 137 114 203 164 219 164 7 0 50 -16 96 -35z m690
-115 c20 -63 63 -182 94 -264 31 -82 56 -150 56 -152 0 -4 -171 -94 -180 -94
-4 0 -29 53 -55 118 -26 64 -79 182 -117 262 -38 79 -66 150 -64 156 3 7 31
20 63 29 31 9 78 27 103 40 25 13 49 23 54 22 5 -2 25 -54 46 -117z m3138 96
c26 -13 75 -32 107 -41 33 -10 63 -19 66 -21 4 -2 -30 -84 -76 -181 -45 -98
-97 -216 -116 -263 -18 -47 -36 -89 -40 -93 -5 -7 -189 77 -189 87 0 2 26 72
59 157 32 85 70 192 85 239 33 103 47 140 53 140 2 0 25 -11 51 -24z m-3490
-523 c24 -49 76 -192 71 -197 -2 -1 -31 -23 -64 -47 -195 -142 -474 -408 -619
-589 -83 -104 -237 -337 -296 -445 -62 -115 -54 -111 -122 -58 -32 26 -61 50
-64 54 -6 11 69 168 138 288 153 267 312 475 523 687 128 128 382 344 405 344
5 0 18 -17 28 -37z m3841 -5 c242 -181 508 -455 683 -704 123 -175 318 -523
318 -567 0 -8 -28 -36 -62 -61 l-62 -46 -16 27 c-9 16 -38 66 -64 113 -209
371 -531 734 -873 983 -46 33 -83 67 -83 75 0 25 82 222 93 222 6 0 35 -19 66
-42z m-2463 -135 c-20 -126 -19 -161 3 -196 41 -67 43 -67 498 -67 387 0 410
1 440 20 64 39 78 106 44 218 l-19 62 28 0 c49 0 329 -75 465 -125 153 -56
387 -171 523 -257 389 -247 688 -550 919 -933 148 -246 240 -470 319 -776 l35
-136 -4 -559 -3 -559 -32 -115 c-195 -710 -599 -1266 -1209 -1664 -325 -212
-718 -357 -1133 -417 -220 -32 -540 -32 -760 0 -481 70 -893 238 -1292 528
-153 111 -453 404 -561 549 -241 323 -414 687 -497 1046 -21 91 -21 108 -18
693 l4 600 41 137 c116 379 278 689 515 983 309 384 676 659 1128 844 168 70
473 159 544 161 27 0 28 -1 22 -37z m-3330 -1105 c178 -83 380 -205 597 -361
l97 -70 0 -1082 0 -1081 -27 -26 c-115 -104 -675 -438 -737 -438 -15 0 -16
143 -16 1538 0 846 3 1542 7 1545 8 9 2 11 79 -25z m7734 -1517 c0 -846 -3
-1540 -6 -1544 -7 -7 -225 101 -339 168 -112 66 -320 205 -382 255 l-53 42 0
1083 0 1083 124 88 c68 48 171 117 228 153 125 79 406 223 419 216 5 -4 9
-619 9 -1544z m-8190 174 c0 -674 -4 -1225 -8 -1225 -9 0 -15 21 -62 227 -131
573 -147 1185 -45 1769 23 133 76 365 100 442 3 6 7 12 10 12 3 0 5 -551 5
-1225z m8616 1083 c93 -368 128 -670 128 -1093 0 -312 -9 -441 -50 -695 -27
-171 -96 -477 -115 -510 -5 -8 -8 528 -8 1215 0 788 4 1221 10 1206 5 -13 21
-68 35 -123z m-7508 -2901 c65 -117 224 -348 331 -480 446 -549 1013 -945
1669 -1167 255 -86 472 -135 762 -172 143 -18 689 -18 830 1 595 76 1104 259
1575 566 333 217 616 476 881 805 80 100 258 364 314 465 18 33 34 62 36 64 2
2 34 -16 72 -40 38 -24 91 -56 116 -71 l47 -28 -22 -42 c-44 -86 -183 -303
-269 -417 -543 -729 -1304 -1246 -2165 -1471 -357 -93 -596 -123 -995 -124
-386 0 -605 24 -935 104 -1019 248 -1896 893 -2441 1796 -66 109 -85 147 -76
156 21 21 217 136 224 132 3 -2 24 -37 46 -77z m-469 -258 c248 -416 491 -720
802 -1004 460 -421 952 -712 1529 -904 412 -138 869 -211 1315 -211 1448 0
2796 752 3564 1988 43 70 88 146 100 170 17 33 26 42 39 37 158 -59 232 -91
232 -101 0 -32 -175 -319 -312 -511 -271 -380 -673 -776 -1061 -1046 -951
-663 -2048 -922 -3227 -761 -414 56 -911 210 -1285 396 -835 417 -1479 1019
-1924 1797 -39 69 -68 127 -65 130 10 11 229 99 239 97 6 -1 30 -36 54 -77z"/>
<path d="M3400 6279 c-30 -5 -91 -26 -135 -48 -291 -139 -468 -537 -427 -960
15 -150 49 -269 112 -397 97 -195 219 -306 404 -368 66 -23 207 -23 283 -1
389 111 618 669 486 1185 -55 216 -185 413 -337 512 -105 68 -261 99 -386 77z
m158 -375 c131 -54 232 -279 232 -517 0 -154 -38 -294 -109 -405 -45 -69 -89
-105 -148 -123 -58 -17 -116 6 -176 70 -46 50 -101 144 -90 155 4 3 32 6 63 6
43 0 71 7 118 30 110 55 166 145 167 265 0 163 -117 289 -281 303 -79 6 -81
15 -23 101 77 116 157 153 247 115z"/>
<path d="M4980 6274 c-102 -22 -197 -75 -279 -157 -126 -127 -188 -241 -246
-452 -22 -78 -32 -363 -16 -461 54 -349 246 -616 501 -695 87 -27 223 -27 300
-1 107 37 164 73 245 156 153 155 235 345 265 616 10 89 10 126 -5 244 -27
222 -89 384 -203 528 -76 95 -118 130 -217 178 -119 58 -221 71 -345 44z m173
-368 c93 -39 216 -251 217 -375 0 -21 -4 -19 -29 20 -57 91 -173 147 -278 135
-92 -11 -160 -52 -225 -136 -22 -29 -27 -32 -28 -15 0 11 8 49 19 85 61 214
201 338 324 286z m208 -718 c-18 -95 -83 -219 -143 -273 -63 -56 -108 -71
-168 -55 -57 15 -135 95 -178 182 -37 75 -70 193 -58 205 5 4 11 2 14 -6 10
-30 78 -94 126 -118 77 -39 186 -44 257 -11 57 26 107 70 136 118 9 16 19 27
21 25 3 -2 -1 -33 -7 -67z"/>
<path d="M6590 6279 c-88 -15 -207 -78 -284 -149 -118 -111 -200 -259 -254
-459 -23 -86 -25 -114 -25 -276 0 -193 9 -259 59 -405 82 -238 237 -408 435
-477 134 -46 301 -29 429 44 236 136 400 475 400 827 0 167 -49 384 -117 521
-62 122 -180 254 -280 309 -107 60 -247 85 -363 65z m165 -379 c23 -11 53 -32
67 -47 27 -29 98 -141 98 -155 0 -4 -18 -8 -39 -8 -122 0 -225 -59 -280 -160
-32 -59 -36 -72 -35 -141 2 -127 55 -213 166 -269 47 -23 75 -30 119 -30 32 0
60 -4 63 -8 7 -11 -38 -96 -76 -144 -38 -49 -127 -93 -170 -84 -126 25 -239
199 -270 416 -13 96 -4 256 21 341 39 138 114 248 193 288 54 26 90 27 143 1z"/>
<path d="M2978 4180 c-40 -22 -69 -58 -86 -109 -26 -75 -15 -104 143 -368 237
-393 429 -648 679 -899 335 -336 653 -524 1023 -606 135 -30 464 -33 593 -5
485 106 941 414 1395 942 246 286 561 763 572 868 7 59 -23 125 -73 163 l-37
29 -2086 2 c-2048 2 -2087 2 -2123 -17z m1272 -165 c0 -17 -74 -149 -113 -201
-49 -67 -97 -108 -145 -125 -44 -15 -106 15 -161 77 -48 55 -153 232 -145 246
5 9 564 12 564 3z m750 -1 c0 -4 -18 -41 -41 -83 -87 -164 -195 -262 -270
-246 -40 9 -110 73 -159 145 -48 70 -101 176 -93 184 8 8 563 8 563 0z m744
-2 c7 -12 -73 -150 -124 -217 -41 -54 -96 -98 -138 -110 -66 -19 -178 83 -256
235 -25 48 -46 91 -46 94 0 9 558 7 564 -2z m749 2 c9 -9 -57 -126 -114 -202
-52 -70 -112 -119 -155 -128 -71 -13 -177 90 -257 250 -21 40 -37 76 -37 79 0
9 555 9 563 1z"/>
</g>
</svg>
