<?xml version="1.0" standalone="no"?>
<!DOCTYPE svg PUBLIC "-//W3C//DTD SVG 20010904//EN"
 "http://www.w3.org/TR/2001/REC-SVG-20010904/DTD/svg10.dtd">
<svg version="1.0" xmlns="http://www.w3.org/2000/svg"
 width="1024.000000pt" height="1024.000000pt" viewBox="0 0 1024.000000 1024.000000"
 preserveAspectRatio="xMidYMid meet">
<metadata>
Created by potrace 1.11, written by Peter Selinger 2001-2013
</metadata>
<g transform="translate(0.000000,1024.000000) scale(0.100000,-0.100000)"
fill="#000000" stroke="none">
<path d="M5098 10235 c-2 -1 -36 -5 -75 -9 -85 -7 -190 -28 -288 -57 -38 -11
-74 -22 -80 -23 -5 -2 -19 -7 -30 -11 -11 -5 -42 -17 -70 -27 -120 -46 -236
-110 -500 -276 -110 -69 -213 -133 -230 -142 -16 -10 -115 -69 -220 -132 -256
-154 -400 -234 -520 -289 -55 -25 -210 -110 -345 -189 -135 -78 -265 -154
-290 -168 -25 -14 -126 -72 -225 -130 -99 -58 -196 -114 -215 -125 -19 -11
-48 -28 -65 -38 -16 -10 -41 -24 -55 -32 -14 -7 -128 -73 -255 -147 -126 -73
-288 -167 -360 -208 -154 -88 -177 -104 -273 -196 -112 -108 -210 -247 -294
-419 -42 -87 -120 -311 -139 -402 -7 -33 -13 -62 -14 -65 -6 -21 -24 -124 -30
-175 -3 -22 -8 -56 -10 -75 -3 -19 -8 -69 -11 -110 -9 -104 -11 -3514 -3
-3570 25 -158 65 -288 131 -422 123 -252 322 -420 536 -454 21 -3 40 -8 44
-10 4 -3 53 -5 110 -5 98 -1 186 9 273 31 22 6 47 12 55 14 50 12 262 70 301
82 25 8 55 16 66 18 11 3 51 13 89 24 166 47 266 73 269 70 1 -2 5 -124 8
-273 4 -243 7 -281 30 -375 101 -425 339 -752 720 -989 54 -34 100 -61 102
-61 2 0 58 -32 126 -70 67 -39 126 -70 131 -70 4 0 8 -4 8 -10 0 -5 4 -10 9
-10 5 0 125 -66 267 -146 143 -81 340 -191 439 -246 99 -55 187 -106 195 -113
49 -44 316 -153 410 -169 19 -3 46 -8 59 -10 62 -13 146 -19 246 -18 96 1 139
5 280 29 57 9 201 55 290 91 76 30 264 128 605 314 36 20 162 89 280 153 118
64 235 129 260 145 25 15 180 107 345 205 165 97 311 185 325 193 14 9 38 23
53 32 16 8 266 156 555 329 290 173 633 376 762 452 129 76 266 157 303 180
105 66 217 180 309 314 123 180 219 473 236 724 6 85 8 1624 4 3416 0 132 0
274 1 315 2 139 -18 324 -45 425 -5 22 -11 47 -13 55 -18 94 -115 301 -183
393 -91 123 -163 181 -501 405 -269 178 -535 340 -871 530 -25 14 -114 65
-199 115 -85 49 -328 189 -540 312 -212 122 -487 281 -611 352 -124 72 -301
174 -395 228 -345 198 -356 205 -405 245 -149 123 -375 221 -585 255 -78 13
-279 26 -287 20z m72 -1146 c30 -6 82 -25 115 -42 50 -25 1031 -584 1203 -686
29 -17 55 -31 57 -31 2 0 61 -34 130 -75 70 -41 128 -75 130 -75 2 0 70 -39
152 -87 214 -125 226 -132 243 -140 8 -4 94 -53 190 -108 96 -56 315 -182 485
-280 171 -98 333 -191 360 -207 28 -15 90 -50 140 -76 118 -62 155 -100 188
-193 32 -93 39 -130 43 -254 3 -106 15 -2064 17 -3050 l2 -590 -28 -55 c-51
-99 -79 -122 -337 -272 -158 -92 -493 -285 -525 -303 -11 -5 -31 -17 -45 -26
-14 -9 -182 -105 -375 -214 -192 -109 -390 -221 -440 -250 -90 -52 -872 -496
-995 -565 -36 -20 -83 -47 -105 -59 -22 -13 -116 -66 -210 -119 -93 -53 -186
-108 -205 -123 -19 -16 -62 -40 -95 -56 -83 -38 -200 -38 -293 0 -115 46 -529
286 -1104 639 -230 141 -263 166 -304 228 -52 77 -50 -8 -49 2000 l1 1875 22
58 c25 68 70 133 115 165 18 13 131 78 252 146 121 68 236 132 255 143 19 11
55 31 80 45 25 14 190 109 367 211 177 102 346 193 375 203 53 17 144 23 208
12 59 -10 114 -34 217 -94 54 -31 118 -68 143 -82 25 -14 162 -91 305 -172
143 -81 287 -162 320 -180 197 -108 384 -217 413 -239 46 -36 108 -131 127
-196 13 -47 15 -108 12 -419 -4 -359 -4 -364 -27 -401 -36 -58 -131 -108 -265
-141 -5 -1 -48 -14 -95 -28 -47 -14 -215 -64 -375 -111 -159 -48 -312 -93
-340 -100 -27 -8 -126 -37 -220 -65 -93 -28 -177 -53 -185 -55 -19 -5 -172
-49 -610 -178 -195 -58 -380 -112 -411 -121 l-57 -16 1 -585 c0 -322 2 -585 4
-585 5 0 229 66 363 107 30 9 60 18 65 19 6 2 291 87 635 189 344 103 639 190
655 195 17 4 131 38 255 75 124 37 241 72 260 77 19 5 46 13 60 18 14 5 57 18
95 29 39 11 140 41 225 66 85 26 199 59 252 75 116 33 208 82 323 168 222 167
365 359 439 590 15 46 29 102 32 125 3 23 7 49 10 57 16 47 25 1035 11 1225
-11 156 -121 405 -264 595 -74 99 -209 229 -303 291 -47 31 -169 99 -271 152
-226 116 -458 248 -722 410 -108 67 -205 127 -215 132 -9 6 -51 32 -92 59
-170 112 -358 187 -552 223 -101 18 -343 24 -442 10 -193 -27 -438 -117 -604
-223 -29 -19 -54 -34 -57 -34 -3 0 -53 -29 -112 -64 -161 -95 -780 -449 -928
-531 -22 -12 -92 -51 -155 -85 -115 -64 -194 -117 -259 -175 -195 -173 -349
-431 -417 -700 -4 -16 -8 -32 -9 -35 -1 -3 -5 -25 -9 -50 -5 -25 -10 -54 -12
-65 -16 -75 -18 -236 -17 -1202 1 -818 -1 -1084 -10 -1091 -7 -6 -73 -28 -147
-50 -74 -22 -237 -72 -362 -111 -125 -39 -233 -71 -240 -71 -10 0 -13 194 -15
958 -1 526 -2 1292 -3 1702 -1 505 2 754 9 773 6 15 9 27 6 27 -9 0 35 111 61
156 15 26 48 68 73 93 45 45 106 80 1416 827 127 72 509 291 850 486 341 196
636 364 655 374 19 11 37 21 40 24 3 3 25 16 50 29 25 13 68 41 95 62 56 42
109 65 175 77 49 9 49 9 130 -9z"/>
</g>
</svg>
